<mxfile host="app.diagrams.net" modified="2023-05-03T13:06:07.070Z" agent="Mozilla/5.0 (Macintosh; Intel Mac OS X 10_15_7) AppleWebKit/537.36 (KHTML, like Gecko) Chrome/112.0.0.0 Safari/537.36" version="21.2.0" etag="nEWtzmYR4U_sF8_rkm_7" type="github">
  <diagram name="Page-1" id="1PQnfOmhYsHQDOHaUDlQ">
    <mxGraphModel>
      <root>
        <mxCell id="0" />
        <mxCell id="1" parent="0" />
      </root>
    </mxGraphModel>
  </diagram>
</mxfile>
